<svg width="147" height="33" viewBox="0 0 147 33" fill="none" xmlns="http://www.w3.org/2000/svg">
<path d="M7.79688 25.6719L11.0781 8.70312C11.4844 6.60938 11.6875 5.35938 11.6875 4.95312C11.6875 4.32812 11.4844 3.9375 11.0781 3.78125C10.6719 3.625 9.70312 3.54688 8.17188 3.54688C6.98438 3.54688 5.9375 3.90625 5.03125 4.625C4.125 5.3125 3.3125 6.48438 2.59375 8.14062C2.5 8.29688 2.34375 8.375 2.125 8.375C1.9375 8.375 1.70312 8.34375 1.42188 8.28125C1.14062 8.1875 0.984375 8.10938 0.953125 8.04688L3.25 0.40625C4.4375 0.75 5.40625 0.921875 6.15625 0.921875C7.375 0.921875 8.95312 0.96875 10.8906 1.0625C12.8281 1.15625 14.4062 1.20312 15.625 1.20312C16.8438 1.20312 18.4531 1.15625 20.4531 1.0625C22.4531 0.96875 24.0625 0.921875 25.2812 0.921875C26 0.921875 27.0469 0.75 28.4219 0.40625L27.7188 8.09375C27.6562 8.15625 27.4688 8.23438 27.1562 8.32812C26.8438 8.39062 26.5938 8.42188 26.4062 8.42188C26.1562 8.42188 26.0312 8.34375 26.0312 8.1875C25.9688 6.53125 25.6094 5.34375 24.9531 4.625C24.2969 3.90625 23.3906 3.54688 22.2344 3.54688C21.1719 3.54688 20.3438 3.59375 19.75 3.6875C19.1562 3.78125 18.7969 3.89062 18.6719 4.01562C18.5469 4.10938 18.4531 4.23438 18.3906 4.39062C17.9531 5.35938 17.5625 6.75 17.2188 8.5625L13.9375 25.4844C13.625 27.1094 13.4688 28.3594 13.4688 29.2344C13.4688 29.5469 13.7656 29.8594 14.3594 30.1719C14.9844 30.4531 15.4375 30.5938 15.7188 30.5938C15.7812 30.5938 15.8125 30.6719 15.8125 30.8281C15.8125 31.4219 15.7031 31.875 15.4844 32.1875C15.1094 32.1562 14.5156 32.1094 13.7031 32.0469C12.9219 31.9844 12.1875 31.9375 11.5 31.9062C10.8125 31.875 10.1875 31.8594 9.625 31.8594C8.84375 31.8594 7.73438 31.9062 6.29688 32C4.85938 32.0938 3.96875 32.1562 3.625 32.1875C3.59375 32.1562 3.57812 32.0625 3.57812 31.9062C3.57812 31.6875 3.60938 31.4219 3.67188 31.1094C3.73438 30.7656 3.79688 30.5938 3.85938 30.5938C4.20312 30.5938 4.70312 30.5 5.35938 30.3125C6.04688 30.0938 6.46875 29.8438 6.625 29.5625C7.09375 28.75 7.48438 27.4531 7.79688 25.6719ZM36.1094 10.9531C36.8281 10.9531 37.4219 11.1875 37.8906 11.6562C38.3594 12.0938 38.5938 12.75 38.5938 13.625C38.5938 14.5625 38.5156 15.4062 38.3594 16.1562C38.1406 17.4062 38.0156 18.0938 37.9844 18.2188C38.8906 16.0938 39.9688 14.3594 41.2188 13.0156C42.5 11.6406 43.9219 10.9531 45.4844 10.9531C46.6094 10.9531 47.6406 11.5625 48.5781 12.7812C48.5781 14 48.3438 15.0938 47.875 16.0625C47.4375 17 46.7188 17.4688 45.7188 17.4688C45.2188 17.4688 44.6719 17.125 44.0781 16.4375C43.4844 15.75 42.9375 15.4062 42.4375 15.4062C41.6562 15.4062 40.5312 16.8281 39.0625 19.6719C37.5938 22.4844 36.5938 25.2031 36.0625 27.8281L35.2188 32C34.3438 32.1875 33.4531 32.2812 32.5469 32.2812C31.6406 32.2812 30.7344 32.1875 29.8281 32L32.6406 17.3281C32.7031 17.0156 32.7344 16.6562 32.7344 16.25C32.7344 15.5 32.5781 15.125 32.2656 15.125C31.8281 15.125 31.2031 15.4531 30.3906 16.1094C29.6094 16.7656 29.0938 17.2656 28.8438 17.6094C28.7812 17.6094 28.6094 17.4531 28.3281 17.1406C28.0781 16.8281 27.9531 16.6094 27.9531 16.4844C28.2969 15.6406 29.4062 14.5156 31.2812 13.1094C33.1875 11.6719 34.7969 10.9531 36.1094 10.9531ZM59.5938 13.4375C58.6875 13.4375 57.8281 14.1719 57.0156 15.6406C56.2344 17.0781 55.625 18.8281 55.1875 20.8906C54.75 22.9531 54.5469 24.9375 54.5781 26.8438C54.6406 28.8125 55.1562 29.7969 56.125 29.7969C57.0938 29.7969 57.9844 29.0156 58.7969 27.4531C59.6094 25.8594 60.2031 24.0625 60.5781 22.0625C60.9844 20.0312 61.1719 18.1562 61.1406 16.4375C61.0781 14.4375 60.5625 13.4375 59.5938 13.4375ZM60.0625 10.9531C62.4688 10.9531 64.2188 11.6562 65.3125 13.0625C66.4062 14.4375 66.9531 16.2656 66.9531 18.5469C66.9531 20.8594 66.4531 23.0781 65.4531 25.2031C64.4531 27.2969 63.0781 29 61.3281 30.3125C59.5781 31.625 57.6875 32.2812 55.6562 32.2812C53.2188 32.2812 51.4531 31.5938 50.3594 30.2188C49.2969 28.8125 48.7656 26.9688 48.7656 24.6875C48.7656 22.5625 49.25 20.4531 50.2188 18.3594C51.2188 16.2344 52.5938 14.4688 54.3438 13.0625C56.125 11.6562 58.0312 10.9531 60.0625 10.9531ZM75.6719 10.9531C76.3906 10.9531 76.9844 11.1875 77.4531 11.6562C77.9219 12.0938 78.1562 12.75 78.1562 13.625C78.1562 14 78.0312 15 77.7812 16.625C77.7812 16.6875 77.7656 16.7656 77.7344 16.8594C77.7344 16.9219 77.7188 17.0469 77.6875 17.2344C77.6562 17.4219 77.625 17.5781 77.5938 17.7031C77.5938 17.7969 77.5938 17.8438 77.5938 17.8438C78.4062 16.1875 79.4688 14.625 80.7812 13.1562C82.0938 11.6875 83.2656 10.9531 84.2969 10.9531C85.6719 10.9531 86.6875 11.4375 87.3438 12.4062C88 13.375 88.3281 14.5938 88.3281 16.0625C88.3281 16.8125 88.0781 18.4844 87.5781 21.0781L86.6406 26C86.5781 26.1875 86.5469 26.5469 86.5469 27.0781C86.5469 27.8281 86.7031 28.2031 87.0156 28.2031C87.4531 28.2031 88.0625 27.875 88.8438 27.2188C89.6562 26.5625 90.1875 26.0625 90.4375 25.7188C90.5312 25.7188 90.7031 25.875 90.9531 26.1875C91.2031 26.5 91.3281 26.7188 91.3281 26.8438C90.9844 27.6875 89.8594 28.8281 87.9531 30.2656C86.0781 31.6719 84.4844 32.375 83.1719 32.375C82.4844 32.375 81.8906 32.1562 81.3906 31.7188C80.9219 31.25 80.6875 30.5781 80.6875 29.7031C80.6875 28.7969 80.8438 27.6406 81.1562 26.2344L82.2344 20.6562C82.5469 19.0938 82.7031 18.1875 82.7031 17.9375C82.7031 17.2812 82.5938 16.7969 82.375 16.4844C82.1875 16.1719 81.8438 16.0156 81.3438 16.0156C80.5625 16.0156 79.5469 17.3438 78.2969 20C77.0469 22.6562 76.2031 25.0156 75.7656 27.0781L74.7812 32C74.1562 32.1875 73.2812 32.2812 72.1562 32.2812C71.0625 32.2812 70.1406 32.1875 69.3906 32L72.2031 17.3281C72.2656 17.0156 72.2969 16.6562 72.2969 16.25C72.2969 15.5 72.1406 15.125 71.8281 15.125C71.3906 15.125 70.7656 15.4531 69.9531 16.1094C69.1719 16.7656 68.6562 17.2656 68.4062 17.6094C68.3438 17.6094 68.1719 17.4531 67.8906 17.1406C67.6406 16.8281 67.5156 16.6094 67.5156 16.4844C67.8594 15.6406 68.9688 14.5156 70.8438 13.1094C72.75 11.6719 74.3594 10.9531 75.6719 10.9531ZM109.844 21.5C109.844 18.6562 108.406 17.2344 105.531 17.2344C103.719 17.2344 102.781 17.4531 102.719 17.8906L100.656 28.4375C100.656 28.4375 100.656 28.5 100.656 28.625C100.656 28.8125 100.734 28.9688 100.891 29.0938C101.047 29.1875 101.359 29.2656 101.828 29.3281C102.328 29.3906 103.062 29.4219 104.031 29.4219C104.812 29.4219 105.531 29.2812 106.188 29C107.094 28.625 107.922 27.8125 108.672 26.5625C109.453 25.2812 109.844 23.5938 109.844 21.5ZM116.453 21.4062C116.453 24.5312 115.234 27.0781 112.797 29.0469C110.359 31.0156 107.344 32 103.75 32C103.719 32 102.516 31.9844 100.141 31.9531C97.7969 31.9219 96.5938 31.9062 96.5312 31.9062C95.4688 31.9062 94.3594 31.9531 93.2031 32.0469C92.0469 32.1406 91.2969 32.1875 90.9531 32.1875C90.8906 32.125 90.8594 31.9844 90.8594 31.7656C90.8594 31.5781 90.8906 31.3906 90.9531 31.2031C90.9844 31.0156 91.0312 30.875 91.0938 30.7812C91.1562 30.6562 91.2031 30.5938 91.2344 30.5938C91.5469 30.5938 92.0469 30.4688 92.7344 30.2188C93.4219 29.9688 93.8438 29.7031 94 29.4219C94.375 28.7656 94.7656 27.3906 95.1719 25.2969L98.5938 7.57812C98.9375 5.57812 99.0938 4.35938 99.0625 3.92188C99.0312 3.67188 98.6875 3.39062 98.0312 3.07812C97.4062 2.73438 96.9531 2.5625 96.6719 2.5625C96.6094 2.5625 96.5781 2.45312 96.5781 2.23438C96.5781 1.60937 96.6875 1.1875 96.9062 0.96875C99.0625 1.0625 101.109 1.10938 103.047 1.10938C104.891 1.10938 106.422 1.09375 107.641 1.0625C108.891 1.03125 109.609 1.01562 109.797 1.01562C110.766 1.01562 111.719 1.14062 112.656 1.39062C113.594 1.64063 114.469 2.03125 115.281 2.5625C116.125 3.0625 116.797 3.76562 117.297 4.67188C117.828 5.54688 118.094 6.5625 118.094 7.71875C118.094 8.3125 118.031 8.89062 117.906 9.45312C117.781 9.98438 117.609 10.4844 117.391 10.9531C117.203 11.3906 116.984 11.8125 116.734 12.2188C116.484 12.625 116.203 12.9844 115.891 13.2969C115.609 13.6094 115.328 13.9062 115.047 14.1875C114.766 14.4375 114.484 14.6562 114.203 14.8438C113.953 15.0312 113.719 15.1875 113.5 15.3125C113.312 15.4375 113.156 15.5312 113.031 15.5938C112.938 15.6562 112.891 15.6875 112.891 15.6875C113.703 15.8438 114.5 16.4375 115.281 17.4688C116.062 18.5 116.453 19.8125 116.453 21.4062ZM111.531 7.20312C111.531 5.89062 111.25 4.96875 110.688 4.4375C110.125 3.875 109.266 3.59375 108.109 3.59375C107.203 3.59375 106.531 3.64062 106.094 3.73438C105.688 3.82812 105.438 4.03125 105.344 4.34375L103.469 13.9531C103.375 14.3906 104.094 14.6094 105.625 14.6094C107.438 14.6094 108.875 14 109.938 12.7812C111 11.5625 111.531 9.70312 111.531 7.20312ZM135.438 0.96875C136.344 0.96875 137.266 1.09375 138.203 1.34375C139.141 1.5625 140.062 1.90625 140.969 2.375C141.906 2.84375 142.672 3.53125 143.266 4.4375C143.859 5.3125 144.156 6.32812 144.156 7.48438C144.156 9.42188 143.469 11.3594 142.094 13.2969C140.719 15.2031 139.062 16.4844 137.125 17.1406C136.969 17.2031 136.938 17.3594 137.031 17.6094C138.5 21.9531 140.203 25.3438 142.141 27.7812C143.641 29.6875 145.109 30.6406 146.547 30.6406C146.547 31.2031 146.391 31.7188 146.078 32.1875C145.641 32.25 145.078 32.2812 144.391 32.2812C143.672 32.2812 142.984 32.2344 142.328 32.1406C141.672 32.0469 141.094 31.9531 140.594 31.8594C140.125 31.7344 139.641 31.5469 139.141 31.2969C138.672 31.0156 138.281 30.7969 137.969 30.6406C137.688 30.4531 137.375 30.1562 137.031 29.75C136.688 29.3125 136.422 29 136.234 28.8125C136.078 28.625 135.859 28.2812 135.578 27.7812C135.297 27.25 135.109 26.8906 135.016 26.7031C134.922 26.5156 134.734 26.1406 134.453 25.5781C134.203 25.0156 134.047 24.6562 133.984 24.5C132.484 21.2812 131.5 19.4219 131.031 18.9219C130.625 18.4844 130.125 18.2656 129.531 18.2656C129.375 18.2656 129.266 18.2812 129.203 18.3125C129.172 18.3125 129.094 18.375 128.969 18.5C128.875 18.5938 128.812 18.7656 128.781 19.0156L127.516 25.4844C127.203 27.1094 127.047 28.3594 127.047 29.2344C127.047 29.5469 127.344 29.8594 127.938 30.1719C128.562 30.4531 129.016 30.5938 129.297 30.5938C129.359 30.5938 129.391 30.6719 129.391 30.8281C129.391 31.4219 129.281 31.875 129.062 32.1875C128.688 32.1562 128.094 32.1094 127.281 32.0469C126.469 31.9844 125.703 31.9375 124.984 31.9062C124.297 31.875 123.672 31.8594 123.109 31.8594C122.328 31.8594 121.234 31.9062 119.828 32C118.453 32.0938 117.578 32.1562 117.203 32.1875C117.172 32.1562 117.156 32.0625 117.156 31.9062C117.156 31.6875 117.188 31.4219 117.25 31.1094C117.312 30.7656 117.375 30.5938 117.438 30.5938C117.781 30.5938 118.281 30.5 118.938 30.3125C119.625 30.0938 120.047 29.8438 120.203 29.5625C120.703 28.75 121.094 27.4531 121.375 25.6719L124.938 7.48438C125.219 5.89062 125.359 4.78125 125.359 4.15625C125.359 3.6875 125.062 3.3125 124.469 3.03125C123.906 2.71875 123.438 2.5625 123.062 2.5625C123 2.5625 122.969 2.48438 122.969 2.32812C122.969 2.10938 123.016 1.84375 123.109 1.53125C123.203 1.21875 123.281 1.03125 123.344 0.96875C126.625 1.125 128.609 1.20312 129.297 1.20312C130.141 1.20312 131.156 1.17188 132.344 1.10938C133.531 1.01562 134.562 0.96875 135.438 0.96875ZM134.453 3.54688C133.297 3.54688 132.547 3.625 132.203 3.78125C131.859 3.90625 131.641 4.21875 131.547 4.71875L129.672 14.4219C129.641 14.5156 129.625 14.625 129.625 14.75C129.625 15.1562 129.844 15.4219 130.281 15.5469C130.719 15.6406 131.484 15.6875 132.578 15.6875C133.609 15.6875 134.5 15.2344 135.25 14.3281C136.031 13.4219 136.578 12.3594 136.891 11.1406C137.234 9.92188 137.406 8.67188 137.406 7.39062C137.406 6.10938 137.141 5.15625 136.609 4.53125C136.078 3.875 135.359 3.54688 134.453 3.54688Z" fill="#1F8DD6"/>
</svg>
